<?xml version="1.0" encoding="UTF-8" standalone="no"?>
<!DOCTYPE svg PUBLIC "-//W3C//DTD SVG 1.1//EN"
 "http://www.w3.org/Graphics/SVG/1.1/DTD/svg11.dtd">
<!-- Generated by graphviz version 2.38.0 (20140413.2041)
 -->
<!-- Title: G Pages: 1 -->
<svg width="199pt" height="660pt"
 viewBox="0.00 0.00 199.00 660.00" xmlns="http://www.w3.org/2000/svg" xmlns:xlink="http://www.w3.org/1999/xlink">
<g id="graph0" class="graph" transform="scale(1 1) rotate(0) translate(4 656)">
<title>G</title>
<polygon fill="white" stroke="none" points="-4,4 -4,-656 195,-656 195,4 -4,4"/>
<g id="clust1" class="cluster"><title>cluster_Global</title>
<path fill="none" stroke="gray" d="M20,-8C20,-8 171,-8 171,-8 177,-8 183,-14 183,-20 183,-20 183,-632 183,-632 183,-638 177,-644 171,-644 171,-644 20,-644 20,-644 14,-644 8,-638 8,-632 8,-632 8,-20 8,-20 8,-14 14,-8 20,-8"/>
<text text-anchor="middle" x="95.5" y="-631.2" font-family="Times New Roman,serif" font-size="11.00" fill="gray">Global</text>
</g>
<g id="clust2" class="cluster"><title>cluster_\app</title>
<path fill="none" stroke="gray" d="M28,-16C28,-16 163,-16 163,-16 169,-16 175,-22 175,-28 175,-28 175,-604 175,-604 175,-610 169,-616 163,-616 163,-616 28,-616 28,-616 22,-616 16,-610 16,-604 16,-604 16,-28 16,-28 16,-22 22,-16 28,-16"/>
<text text-anchor="middle" x="95.5" y="-603.2" font-family="Times New Roman,serif" font-size="11.00" fill="gray">app</text>
</g>
<g id="clust3" class="cluster"><title>cluster_\app\Controller</title>
<path fill="none" stroke="gray" d="M50.5,-462C50.5,-462 140.5,-462 140.5,-462 146.5,-462 152.5,-468 152.5,-474 152.5,-474 152.5,-576 152.5,-576 152.5,-582 146.5,-588 140.5,-588 140.5,-588 50.5,-588 50.5,-588 44.5,-588 38.5,-582 38.5,-576 38.5,-576 38.5,-474 38.5,-474 38.5,-468 44.5,-462 50.5,-462"/>
<text text-anchor="middle" x="95.5" y="-575.2" font-family="Times New Roman,serif" font-size="11.00" fill="gray">Controller</text>
</g>
<g id="clust4" class="cluster"><title>cluster_\app\Models</title>
<path fill="none" stroke="gray" d="M36,-24C36,-24 155,-24 155,-24 161,-24 167,-30 167,-36 167,-36 167,-442 167,-442 167,-448 161,-454 155,-454 155,-454 36,-454 36,-454 30,-454 24,-448 24,-442 24,-442 24,-36 24,-36 24,-30 30,-24 36,-24"/>
<text text-anchor="middle" x="95.5" y="-441.2" font-family="Times New Roman,serif" font-size="11.00" fill="gray">Models</text>
</g>
<g id="clust5" class="cluster"><title>cluster_\app\Models\data</title>
<path fill="none" stroke="gray" d="M44,-300C44,-300 147,-300 147,-300 153,-300 159,-306 159,-312 159,-312 159,-414 159,-414 159,-420 153,-426 147,-426 147,-426 44,-426 44,-426 38,-426 32,-420 32,-414 32,-414 32,-312 32,-312 32,-306 38,-300 44,-300"/>
<text text-anchor="middle" x="95.5" y="-413.2" font-family="Times New Roman,serif" font-size="11.00" fill="gray">data</text>
</g>
<g id="clust6" class="cluster"><title>cluster_\app\Models\entity</title>
<path fill="none" stroke="gray" d="M72.5,-166C72.5,-166 118.5,-166 118.5,-166 124.5,-166 130.5,-172 130.5,-178 130.5,-178 130.5,-280 130.5,-280 130.5,-286 124.5,-292 118.5,-292 118.5,-292 72.5,-292 72.5,-292 66.5,-292 60.5,-286 60.5,-280 60.5,-280 60.5,-178 60.5,-178 60.5,-172 66.5,-166 72.5,-166"/>
<text text-anchor="middle" x="95.5" y="-279.2" font-family="Times New Roman,serif" font-size="11.00" fill="gray">entity</text>
</g>
<g id="clust7" class="cluster"><title>cluster_\app\Models\util</title>
<path fill="none" stroke="gray" d="M71,-32C71,-32 120,-32 120,-32 126,-32 132,-38 132,-44 132,-44 132,-146 132,-146 132,-152 126,-158 120,-158 120,-158 71,-158 71,-158 65,-158 59,-152 59,-146 59,-146 59,-44 59,-44 59,-38 65,-32 71,-32"/>
<text text-anchor="middle" x="95.5" y="-145.2" font-family="Times New Roman,serif" font-size="11.00" fill="gray">util</text>
</g>
<!-- \\app\\Controller\\AdminManager -->
<g id="node1" class="node"><title>\\app\\Controller\\AdminManager</title>
<polygon fill="none" stroke="black" points="144.5,-560 46.5,-560 46.5,-524 144.5,-524 144.5,-560"/>
<text text-anchor="middle" x="95.5" y="-539.2" font-family="Courier,monospace" font-size="11.00">AdminManager</text>
</g>
<!-- \\app\\Controller\\UserManager -->
<g id="node2" class="node"><title>\\app\\Controller\\UserManager</title>
<polygon fill="none" stroke="black" points="141,-506 50,-506 50,-470 141,-470 141,-506"/>
<text text-anchor="middle" x="95.5" y="-485.2" font-family="Courier,monospace" font-size="11.00">UserManager</text>
</g>
<!-- \\app\\Models\\data\\AdminManagerDB -->
<g id="node3" class="node"><title>\\app\\Models\\data\\AdminManagerDB</title>
<polygon fill="none" stroke="black" points="151,-398 40,-398 40,-362 151,-362 151,-398"/>
<text text-anchor="middle" x="95.5" y="-377.2" font-family="Courier,monospace" font-size="11.00">AdminManagerDB</text>
</g>
<!-- \\app\\Models\\data\\UserManagerDB -->
<g id="node4" class="node"><title>\\app\\Models\\data\\UserManagerDB</title>
<polygon fill="none" stroke="black" points="147.5,-344 43.5,-344 43.5,-308 147.5,-308 147.5,-344"/>
<text text-anchor="middle" x="95.5" y="-323.2" font-family="Courier,monospace" font-size="11.00">UserManagerDB</text>
</g>
<!-- \\app\\Models\\entity\\Admin -->
<g id="node5" class="node"><title>\\app\\Models\\entity\\Admin</title>
<polygon fill="none" stroke="black" points="122.5,-264 68.5,-264 68.5,-228 122.5,-228 122.5,-264"/>
<text text-anchor="middle" x="95.5" y="-243.2" font-family="Courier,monospace" font-size="11.00">Admin</text>
</g>
<!-- \\app\\Models\\entity\\User -->
<g id="node6" class="node"><title>\\app\\Models\\entity\\User</title>
<polygon fill="none" stroke="black" points="122.5,-210 68.5,-210 68.5,-174 122.5,-174 122.5,-210"/>
<text text-anchor="middle" x="95.5" y="-189.2" font-family="Courier,monospace" font-size="11.00">User</text>
</g>
<!-- \\app\\Models\\util\\Config -->
<g id="node7" class="node"><title>\\app\\Models\\util\\Config</title>
<polygon fill="none" stroke="black" points="124,-130 67,-130 67,-94 124,-94 124,-130"/>
<text text-anchor="middle" x="95.5" y="-109.2" font-family="Courier,monospace" font-size="11.00">Config</text>
</g>
<!-- \\app\\Models\\util\\DBUtil -->
<g id="node8" class="node"><title>\\app\\Models\\util\\DBUtil</title>
<polygon fill="none" stroke="black" points="124,-76 67,-76 67,-40 124,-40 124,-76"/>
<text text-anchor="middle" x="95.5" y="-55.2" font-family="Courier,monospace" font-size="11.00">DBUtil</text>
</g>
</g>
</svg>
